<?xml version="1.0" encoding="utf-8"?>
<!-- Generator: Adobe Illustrator 22.0.1, SVG Export Plug-In . SVG Version: 6.00 Build 0)  -->
<svg version="1.1" id="Layer_1" xmlns="http://www.w3.org/2000/svg" xmlns:xlink="http://www.w3.org/1999/xlink" x="0px" y="0px"
	 viewBox="0 0 200 200" style="enable-background:new 0 0 200 200;" xml:space="preserve">
<style type="text/css">
	.st0{opacity:0.75;}
	.st1{fill:#010101;}
	.st2{fill:#060507;}
	.st3{fill:#FFFFFF;}
	.st4{fill:#E99795;}
	.st5{fill:#962588;}
	.st6{fill:#751169;}
</style>
<g>
	<g>
		<g>
			<g class="st0">
				<path class="st1" d="M27.2,170.5V36.3l23.1,0.3v6.3c0,8.2,6.7,14.8,14.8,14.8C73.4,57.7,80,51,80,42.8v-6.3h44.3v6.3
					c0,8.2,6.7,14.8,14.8,14.8c8.2,0,14.8-6.7,14.8-14.8v-6.3h22.9l0.2,134l-11.6,0H27.2z"/>
				<path class="st1" d="M28.2,37.3l21.1,0.3v5.3c0,8.7,7.1,15.8,15.8,15.8c8.7,0,15.8-7.1,15.8-15.8v-5.3h42.3v5.3
					c0,8.7,7.1,15.8,15.8,15.8c8.7,0,15.8-7.1,15.8-15.8v-5.3h20.9l0.2,132l-10.6,0H38.8H28.2V37.3 M26.2,35.2v2v132.3v2h2h10.6
					h126.7l10.6,0l2,0l0-2l-0.2-132l0-2h-2H155h-2v2v5.3c0,7.6-6.2,13.8-13.8,13.8c-7.6,0-13.8-6.2-13.8-13.8v-5.3v-2h-2H81h-2v2
					v5.3c0,7.6-6.2,13.8-13.8,13.8c-7.6,0-13.8-6.2-13.8-13.8v-5.3v-2l-2,0l-21.1-0.3L26.2,35.2L26.2,35.2z"/>
			</g>
			<g>
				<path class="st2" d="M25.2,168.5V34.3l23.1,0.3v6.3c0,8.2,6.7,14.8,14.8,14.8C71.4,55.7,78,49,78,40.8v-6.3h44.3v6.3
					c0,8.2,6.7,14.8,14.8,14.8c8.2,0,14.8-6.7,14.8-14.8v-6.3h22.9l0.2,134l-11.6,0H25.2z"/>
				<path class="st3" d="M26.2,35.3l21.1,0.3v5.3c0,8.7,7.1,15.8,15.8,15.8c8.7,0,15.8-7.1,15.8-15.8v-5.3h42.3v5.3
					c0,8.7,7.1,15.8,15.8,15.8c8.7,0,15.8-7.1,15.8-15.8v-5.3h20.9l0.2,132l-10.6,0H36.8H26.2V35.3 M24.2,33.2v2v132.3v2h2h10.6
					h126.7l10.6,0l2,0l0-2l-0.2-132l0-2h-2H153h-2v2v5.3c0,7.6-6.2,13.8-13.8,13.8c-7.6,0-13.8-6.2-13.8-13.8v-5.3v-2h-2H79h-2v2
					v5.3c0,7.6-6.2,13.8-13.8,13.8c-7.6,0-13.8-6.2-13.8-13.8v-5.3v-2l-2,0l-21.1-0.3L24.2,33.2L24.2,33.2z"/>
			</g>
		</g>
		<g>
			<path class="st2" d="M136.9,50.2c-6.3,0-11.4-5.1-11.4-11.4V27.9c0-6.3,5.1-11.4,11.4-11.4c6.3,0,11.4,5.1,11.4,11.4v10.9
				C148.3,45.1,143.2,50.2,136.9,50.2z"/>
			<path class="st3" d="M136.9,17.5c5.8,0,10.4,4.6,10.4,10.4v10.9c0,5.8-4.7,10.4-10.4,10.4c-5.7,0-10.4-4.6-10.4-10.4V27.9
				C126.5,22.2,131.2,17.5,136.9,17.5 M136.9,15.5c-6.8,0-12.4,5.6-12.4,12.4v10.9c0,6.8,5.6,12.4,12.4,12.4
				c6.8,0,12.4-5.6,12.4-12.4V27.9C149.3,21.1,143.8,15.5,136.9,15.5L136.9,15.5z"/>
		</g>
		<g>
			<path class="st2" d="M63,50.2c-6.3,0-11.4-5.1-11.4-11.4V27.9c0-6.3,5.1-11.4,11.4-11.4c6.3,0,11.4,5.1,11.4,11.4v10.9
				C74.4,45.1,69.3,50.2,63,50.2z"/>
			<path class="st3" d="M63,17.5c5.7,0,10.4,4.6,10.4,10.4v10.9c0,5.8-4.7,10.4-10.4,10.4c-5.8,0-10.4-4.6-10.4-10.4V27.9
				C52.6,22.2,57.3,17.5,63,17.5 M63,15.5c-6.8,0-12.4,5.6-12.4,12.4v10.9c0,6.8,5.6,12.4,12.4,12.4c6.8,0,12.4-5.6,12.4-12.4V27.9
				C75.4,21.1,69.9,15.5,63,15.5L63,15.5z"/>
		</g>
	</g>
	<rect x="31.7" y="58.5" class="st4" width="137.6" height="106.7"/>
	<g>
		<rect x="79" y="83.8" class="st3" width="16.6" height="14.7"/>
		<g>
			<rect x="106" y="83.8" class="st3" width="16.7" height="14.7"/>
		</g>
		<g>
			<rect x="130.9" y="83.8" class="st3" width="16.6" height="14.7"/>
		</g>
		<rect x="79" y="108.2" class="st5" width="16.6" height="14.7"/>
		<rect x="106" y="108.2" class="st3" width="16.7" height="14.7"/>
		<rect x="130.9" y="108.2" class="st3" width="16.6" height="14.7"/>
		<rect x="79" y="133.1" class="st3" width="16.6" height="14.7"/>
		<rect x="52.6" y="108.2" class="st3" width="16.6" height="14.7"/>
		<rect x="52.6" y="83.8" class="st3" width="16.6" height="14.7"/>
		<rect x="52.6" y="133.1" class="st3" width="16.6" height="14.7"/>
		<rect x="106" y="133.1" class="st3" width="16.7" height="14.7"/>
		<rect x="130.9" y="133.1" class="st3" width="16.6" height="14.7"/>
	</g>
	<g>
		<path class="st6" d="M136.9,49.2c5.7,0,10.4-4.6,10.4-10.4V27.9c0-5.8-4.7-10.4-10.4-10.4c-5.8,0-10.4,4.6-10.4,10.4v10.9
			C126.5,44.6,131.2,49.2,136.9,49.2z"/>
		<path class="st6" d="M173.9,35.5H153v5.3c0,8.7-7.1,15.8-15.8,15.8c-8.8,0-15.8-7.1-15.8-15.8v-5.3H79v5.3
			c0,8.7-7.1,15.8-15.8,15.8s-15.8-7.1-15.8-15.8v-5.3l-21.1-0.3v132.3h10.6h126.7l10.6,0L173.9,35.5z M163.5,157H36.8V72.5h126.7
			L163.5,157L163.5,157z"/>
		<path class="st6" d="M63,49.2c5.7,0,10.4-4.6,10.4-10.4V27.9c0-5.8-4.7-10.4-10.4-10.4c-5.7,0-10.4,4.6-10.4,10.4v10.9
			C52.6,44.6,57.3,49.2,63,49.2z"/>
	</g>
</g>
</svg>
