<?xml version="1.0" encoding="utf-8"?>
<!-- Generator: Adobe Illustrator 22.0.1, SVG Export Plug-In . SVG Version: 6.00 Build 0)  -->
<svg version="1.1" id="Layer_1" xmlns="http://www.w3.org/2000/svg" xmlns:xlink="http://www.w3.org/1999/xlink" x="0px" y="0px"
	 viewBox="0 0 200 200" style="enable-background:new 0 0 200 200;" xml:space="preserve">
<style type="text/css">
	.st0{opacity:0.75;}
	.st1{fill:#010101;}
	.st2{fill:#FFFFFF;}
	.st3{fill:#F79D1F;}
</style>
<g>
	<g>
		<g>
			<g class="st0">
				<path class="st1" d="M146.4,71.4c-0.5-1-1.3-1.5-2.2-1.5h-29.5l29.3-46.3c0.5-0.7,0.5-1.7,0-2.5c-0.5-0.8-1.3-1.3-2.3-1.3h-40
					c-1,0-1.7,0.5-2.2,1.3l-37.5,75c-0.5,0.7-0.5,1.7,0,2.5c0.5,0.7,1.5,1.3,2.3,1.3h25.7l-28,66.7c-0.5,1,0,2.3,1,3
					c0.2,0.2,0.7,0.2,1.3,0.2c0.7,0,1.5-0.2,2-0.7l80-95C146.6,73.4,146.9,72.4,146.4,71.4z M72.9,153.2l23-55
					c0.2-0.8,0.2-1.5-0.3-2.3c-0.5-0.5-1.3-1-2-1H68.1l35-70h34l-29.5,46.2c-0.5,0.8-0.5,1.7,0,2.5c0.5,0.7,1.2,1.3,2.3,1.3h29
					L72.9,153.2z"/>
			</g>
			<g>
				<g>
					<g>
						<path class="st2" d="M144.4,69.4c-0.5-1-1.3-1.5-2.2-1.5h-29.5l29.3-46.3c0.5-0.7,0.5-1.7,0-2.5c-0.5-0.8-1.3-1.3-2.3-1.3h-40
							c-1,0-1.7,0.5-2.2,1.3l-37.5,75c-0.5,0.7-0.5,1.7,0,2.5c0.5,0.7,1.5,1.3,2.3,1.3h25.7l-28,66.7c-0.5,1,0,2.3,1,3
							c0.2,0.2,0.7,0.2,1.3,0.2c0.7,0,1.5-0.2,2-0.7l80-95C144.6,71.4,144.9,70.4,144.4,69.4z M70.9,151.2l23-55
							c0.2-0.8,0.2-1.5-0.3-2.3c-0.5-0.5-1.3-1-2-1H66.1l35-70h34l-29.5,46.2c-0.5,0.8-0.5,1.7,0,2.5c0.5,0.7,1.2,1.3,2.3,1.3h29
							L70.9,151.2z"/>
					</g>
				</g>
			</g>
		</g>
		<path class="st3" d="M70.9,151.2l23-55c0.2-0.8,0.2-1.5-0.3-2.3c-0.5-0.5-1.3-1-2-1H66.1l35-70h34l-29.5,46.2
			c-0.5,0.8-0.5,1.7,0,2.5c0.5,0.7,1.2,1.3,2.3,1.3h29L70.9,151.2z"/>
	</g>
</g>
</svg>
