<?xml version="1.0" encoding="utf-8"?>
<!-- Generator: Adobe Illustrator 22.0.1, SVG Export Plug-In . SVG Version: 6.00 Build 0)  -->
<svg version="1.1" id="Layer_1" xmlns="http://www.w3.org/2000/svg" xmlns:xlink="http://www.w3.org/1999/xlink" x="0px" y="0px"
	 viewBox="0 0 200 200" style="enable-background:new 0 0 200 200;" xml:space="preserve">
<style type="text/css">
	.st0{opacity:0.75;}
	.st1{fill:#010101;stroke:#010101;stroke-width:2;stroke-miterlimit:10;}
	.st2{fill:#010101;}
	.st3{fill:#178FCF;stroke:#FFFFFF;stroke-width:2;stroke-miterlimit:10;}
	.st4{fill:#178FCF;}
	.st5{fill:#FFFFFF;}
	.st6{opacity:0.2;fill:url(#SVGID_1_);}
</style>
<g>
	<g>
		<g>
			<g class="st0">
				<path class="st1" d="M132.8,56c-7.2-6.9-16.7-10.5-26.8-10.2c-19.3,0.8-35,17.1-35,36.3c0,8.5,3,16.9,8.5,23.4
					c7.9,9.5,12.2,21.5,12.2,33.7c0,0-0.8,5.6,3.2,5.6h25.2c4.1,0,3.2-5.6,3.2-5.6c0-12,4.4-23.9,12.8-34.4
					c5.2-6.5,7.9-14.4,7.9-22.7C144,72.3,140,62.9,132.8,56L132.8,56z"/>
				<path class="st2" d="M139.5,49.3c-1.1,0-2.2-0.4-3-1.2c-0.8-0.8-1.2-1.8-1.2-2.9c0-1.1,0.4-2.2,1.2-3l7.8-7.8
					c0.8-0.8,1.8-1.2,2.9-1.2c1.1,0,2.2,0.4,3,1.2c0.8,0.8,1.2,1.9,1.2,3c0,1.1-0.4,2.2-1.2,2.9l-7.8,7.8
					C141.7,48.9,140.7,49.3,139.5,49.3L139.5,49.3z"/>
				<path class="st2" d="M147.3,34.1c0.8,0,1.6,0.3,2.3,0.9c1.3,1.3,1.3,3.3,0,4.5l-7.8,7.8c-0.6,0.6-1.4,0.9-2.2,0.9
					c-0.8,0-1.6-0.3-2.3-0.9c-1.3-1.2-1.3-3.2,0-4.5l7.8-7.8C145.6,34.5,146.5,34.1,147.3,34.1 M147.3,32.1c-1.4,0-2.7,0.5-3.7,1.5
					l-7.8,7.8c-1,1-1.5,2.3-1.5,3.7c0,1.4,0.6,2.7,1.5,3.6c1,1,2.3,1.5,3.7,1.5c1.4,0,2.7-0.5,3.7-1.5l7.8-7.8
					c1-0.9,1.5-2.2,1.5-3.6c0-1.4-0.5-2.7-1.5-3.7C150,32.7,148.7,32.1,147.3,32.1L147.3,32.1z"/>
				<path class="st2" d="M94.8,156.7c-2.3,0-4.2-1.9-4.2-4.2s1.9-4.2,4.2-4.2h25.5c2.3,0,4.2,1.9,4.2,4.2s-1.9,4.2-4.2,4.2H94.8z"/>
				<path class="st2" d="M120.3,149.3c1.7,0,3.2,1.4,3.2,3.2s-1.4,3.2-3.2,3.2H94.8c-1.7,0-3.2-1.4-3.2-3.2c0-1.7,1.4-3.2,3.2-3.2
					H120.3 M120.3,147.3H94.8c-2.9,0-5.2,2.3-5.2,5.2s2.3,5.2,5.2,5.2h25.5c2.9,0,5.2-2.3,5.2-5.2S123.1,147.3,120.3,147.3
					L120.3,147.3z"/>
				<path class="st2" d="M99.6,168.7c-2.3,0-4.2-1.9-4.2-4.2c0-2.3,1.9-4.2,4.2-4.2h15.8c2.3,0,4.2,1.9,4.2,4.2
					c0,2.3-1.9,4.2-4.2,4.2H99.6z"/>
				<path class="st2" d="M115.5,161.3c1.7,0,3.2,1.4,3.2,3.2c0,1.7-1.4,3.2-3.2,3.2H99.6c-1.7,0-3.2-1.4-3.2-3.2
					c0-1.7,1.4-3.2,3.2-3.2H115.5 M115.5,159.3H99.6c-2.9,0-5.2,2.3-5.2,5.2c0,2.9,2.3,5.2,5.2,5.2h15.8c2.9,0,5.2-2.3,5.2-5.2
					C120.6,161.6,118.3,159.3,115.5,159.3L115.5,159.3z"/>
				<path class="st2" d="M107.5,36c-2.3,0-4.2-1.8-4.2-4.2v-11c0-2.3,1.9-4.2,4.2-4.2c2.3,0,4.2,1.9,4.2,4.2v11
					C111.7,34.2,109.8,36,107.5,36z"/>
				<path class="st2" d="M107.5,17.7c1.7,0,3.2,1.4,3.2,3.2v11c0,1.7-1.4,3.2-3.2,3.2c-1.8,0-3.2-1.4-3.2-3.2v-11
					C104.3,19.1,105.8,17.7,107.5,17.7 M107.5,15.7c-2.9,0-5.2,2.3-5.2,5.2v11c0,2.9,2.3,5.2,5.2,5.2c2.9,0,5.2-2.3,5.2-5.2v-11
					C112.7,18,110.4,15.7,107.5,15.7L107.5,15.7z"/>
				<path class="st2" d="M75.6,49.3c-1.1,0-2.2-0.4-3-1.2l-7.8-7.8c-0.8-0.8-1.2-1.8-1.2-3c0-1.1,0.4-2.2,1.2-3
					c0.8-0.8,1.8-1.2,3-1.2c1.1,0,2.2,0.4,3,1.2l7.8,7.8c0.8,0.8,1.2,1.8,1.2,2.9c0,1.1-0.4,2.2-1.2,3
					C77.7,48.9,76.7,49.3,75.6,49.3z"/>
				<path class="st2" d="M67.8,34.2c0.8,0,1.6,0.3,2.3,0.9l7.8,7.8c1.3,1.2,1.3,3.2,0,4.5c-0.6,0.6-1.4,0.9-2.2,0.9
					c-0.8,0-1.6-0.3-2.3-0.9l-7.8-7.8c-1.3-1.2-1.2-3.2,0-4.5C66.1,34.5,66.9,34.2,67.8,34.2 M67.8,32.2c-1.4,0-2.7,0.5-3.7,1.5
					c-2,2.1-2,5.3,0,7.3l7.8,7.8c1,1,2.3,1.5,3.7,1.5c1.4,0,2.7-0.5,3.7-1.5c1-1,1.5-2.3,1.5-3.7c0-1.4-0.6-2.7-1.5-3.6l-7.8-7.8
					C70.4,32.7,69.1,32.2,67.8,32.2L67.8,32.2z"/>
				<path class="st2" d="M152.7,81.3c-2.3,0-4.2-1.9-4.2-4.2c0-2.3,1.9-4.2,4.2-4.2h11c2.3,0,4.2,1.9,4.2,4.2c0,2.3-1.9,4.2-4.2,4.2
					H152.7z"/>
				<path class="st2" d="M163.7,73.9c1.7,0,3.2,1.4,3.2,3.2c0,1.7-1.4,3.2-3.2,3.2h-11c-1.7,0-3.2-1.4-3.2-3.2
					c0-1.7,1.4-3.2,3.2-3.2H163.7 M163.7,71.9h-11c-2.9,0-5.2,2.3-5.2,5.2c0,2.9,2.3,5.2,5.2,5.2h11c2.9,0,5.2-2.3,5.2-5.2
					C168.9,74.2,166.6,71.9,163.7,71.9L163.7,71.9z"/>
				<path class="st2" d="M51.3,81.3c-2.3,0-4.2-1.9-4.2-4.2c0-2.3,1.9-4.2,4.2-4.2h11c2.3,0,4.2,1.9,4.2,4.2c0,2.3-1.9,4.2-4.2,4.2
					H51.3z"/>
				<path class="st2" d="M62.3,73.9c1.8,0,3.2,1.4,3.2,3.2c0,1.7-1.4,3.2-3.2,3.2h-11c-1.7,0-3.2-1.4-3.2-3.2c0-1.7,1.4-3.2,3.2-3.2
					H62.3 M62.3,71.9h-11c-2.9,0-5.2,2.3-5.2,5.2c0,2.9,2.3,5.2,5.2,5.2h11c2.9,0,5.2-2.3,5.2-5.2C67.5,74.2,65.2,71.9,62.3,71.9
					L62.3,71.9z"/>
			</g>
			<g>
				<g>
					<g>
						<path class="st3" d="M130.8,54c-7.2-6.9-16.7-10.5-26.8-10.2c-19.3,0.8-35,17.1-35,36.3c0,8.5,3,16.9,8.5,23.4
							c7.9,9.5,12.2,21.5,12.2,33.7c0,0-0.8,5.6,3.2,5.6h25.2c4.1,0,3.2-5.6,3.2-5.6c0-12,4.4-23.9,12.8-34.4
							c5.2-6.5,7.9-14.4,7.9-22.7C142,70.3,138,60.9,130.8,54L130.8,54z"/>
						<g>
							<path class="st4" d="M137.5,47.3c-1.1,0-2.2-0.4-3-1.2c-0.8-0.8-1.2-1.8-1.2-2.9c0-1.1,0.4-2.2,1.2-3l7.8-7.8
								c0.8-0.8,1.8-1.2,2.9-1.2c1.1,0,2.2,0.4,3,1.2c0.8,0.8,1.2,1.9,1.2,3c0,1.1-0.4,2.2-1.2,2.9l-7.8,7.8
								C139.7,46.9,138.7,47.3,137.5,47.3L137.5,47.3z"/>
							<path class="st5" d="M145.3,32.1c0.8,0,1.6,0.3,2.3,0.9c1.3,1.3,1.3,3.3,0,4.5l-7.8,7.8c-0.6,0.6-1.4,0.9-2.2,0.9
								c-0.8,0-1.6-0.3-2.3-0.9c-1.3-1.2-1.3-3.2,0-4.5l7.8-7.8C143.6,32.5,144.5,32.1,145.3,32.1 M145.3,30.1
								c-1.4,0-2.7,0.5-3.7,1.5l-7.8,7.8c-1,1-1.5,2.3-1.5,3.7c0,1.4,0.6,2.7,1.5,3.6c1,1,2.3,1.5,3.7,1.5c1.4,0,2.7-0.5,3.7-1.5
								l7.8-7.8c1-0.9,1.5-2.2,1.5-3.6c0-1.4-0.5-2.7-1.5-3.7C148,30.7,146.7,30.1,145.3,30.1L145.3,30.1z"/>
						</g>
						<g>
							<path class="st4" d="M92.8,154.7c-2.3,0-4.2-1.9-4.2-4.2s1.9-4.2,4.2-4.2h25.5c2.3,0,4.2,1.9,4.2,4.2s-1.9,4.2-4.2,4.2H92.8z
								"/>
							<path class="st5" d="M118.3,147.3c1.7,0,3.2,1.4,3.2,3.2s-1.4,3.2-3.2,3.2H92.8c-1.7,0-3.2-1.4-3.2-3.2
								c0-1.7,1.4-3.2,3.2-3.2H118.3 M118.3,145.3H92.8c-2.9,0-5.2,2.3-5.2,5.2s2.3,5.2,5.2,5.2h25.5c2.9,0,5.2-2.3,5.2-5.2
								S121.1,145.3,118.3,145.3L118.3,145.3z"/>
						</g>
						<g>
							<path class="st4" d="M97.6,166.7c-2.3,0-4.2-1.9-4.2-4.2c0-2.3,1.9-4.2,4.2-4.2h15.8c2.3,0,4.2,1.9,4.2,4.2
								c0,2.3-1.9,4.2-4.2,4.2H97.6z"/>
							<path class="st5" d="M113.5,159.3c1.7,0,3.2,1.4,3.2,3.2c0,1.7-1.4,3.2-3.2,3.2H97.6c-1.7,0-3.2-1.4-3.2-3.2
								c0-1.7,1.4-3.2,3.2-3.2H113.5 M113.5,157.3H97.6c-2.9,0-5.2,2.3-5.2,5.2c0,2.9,2.3,5.2,5.2,5.2h15.8c2.9,0,5.2-2.3,5.2-5.2
								C118.6,159.6,116.3,157.3,113.5,157.3L113.5,157.3z"/>
						</g>
						<g>
							<path class="st4" d="M105.5,34c-2.3,0-4.2-1.8-4.2-4.2v-11c0-2.3,1.9-4.2,4.2-4.2c2.3,0,4.2,1.9,4.2,4.2v11
								C109.7,32.2,107.8,34,105.5,34z"/>
							<path class="st5" d="M105.5,15.7c1.7,0,3.2,1.4,3.2,3.2v11c0,1.7-1.4,3.2-3.2,3.2c-1.8,0-3.2-1.4-3.2-3.2v-11
								C102.3,17.1,103.8,15.7,105.5,15.7 M105.5,13.7c-2.9,0-5.2,2.3-5.2,5.2v11c0,2.9,2.3,5.2,5.2,5.2c2.9,0,5.2-2.3,5.2-5.2v-11
								C110.7,16,108.4,13.7,105.5,13.7L105.5,13.7z"/>
						</g>
						<g>
							<path class="st4" d="M73.6,47.3c-1.1,0-2.2-0.4-3-1.2l-7.8-7.8c-0.8-0.8-1.2-1.8-1.2-3c0-1.1,0.4-2.2,1.2-3
								c0.8-0.8,1.8-1.2,3-1.2c1.1,0,2.2,0.4,3,1.2l7.8,7.8c0.8,0.8,1.2,1.8,1.2,2.9c0,1.1-0.4,2.2-1.2,3
								C75.7,46.9,74.7,47.3,73.6,47.3z"/>
							<path class="st5" d="M65.8,32.2c0.8,0,1.6,0.3,2.3,0.9l7.8,7.8c1.3,1.2,1.3,3.2,0,4.5c-0.6,0.6-1.4,0.9-2.2,0.9
								c-0.8,0-1.6-0.3-2.3-0.9l-7.8-7.8c-1.3-1.2-1.2-3.2,0-4.5C64.1,32.5,64.9,32.2,65.8,32.2 M65.8,30.2c-1.4,0-2.7,0.5-3.7,1.5
								c-2,2.1-2,5.3,0,7.3l7.8,7.8c1,1,2.3,1.5,3.7,1.5c1.4,0,2.7-0.5,3.7-1.5c1-1,1.5-2.3,1.5-3.7c0-1.4-0.6-2.7-1.5-3.6l-7.8-7.8
								C68.4,30.7,67.1,30.2,65.8,30.2L65.8,30.2z"/>
						</g>
						<g>
							<path class="st4" d="M150.7,79.3c-2.3,0-4.2-1.9-4.2-4.2c0-2.3,1.9-4.2,4.2-4.2h11c2.3,0,4.2,1.9,4.2,4.2
								c0,2.3-1.9,4.2-4.2,4.2H150.7z"/>
							<path class="st5" d="M161.7,71.9c1.7,0,3.2,1.4,3.2,3.2c0,1.7-1.4,3.2-3.2,3.2h-11c-1.7,0-3.2-1.4-3.2-3.2
								c0-1.7,1.4-3.2,3.2-3.2H161.7 M161.7,69.9h-11c-2.9,0-5.2,2.3-5.2,5.2c0,2.9,2.3,5.2,5.2,5.2h11c2.9,0,5.2-2.3,5.2-5.2
								C166.9,72.2,164.6,69.9,161.7,69.9L161.7,69.9z"/>
						</g>
						<g>
							<path class="st4" d="M49.3,79.3c-2.3,0-4.2-1.9-4.2-4.2c0-2.3,1.9-4.2,4.2-4.2h11c2.3,0,4.2,1.9,4.2,4.2
								c0,2.3-1.9,4.2-4.2,4.2H49.3z"/>
							<path class="st5" d="M60.3,71.9c1.8,0,3.2,1.4,3.2,3.2c0,1.7-1.4,3.2-3.2,3.2h-11c-1.7,0-3.2-1.4-3.2-3.2
								c0-1.7,1.4-3.2,3.2-3.2H60.3 M60.3,69.9h-11c-2.9,0-5.2,2.3-5.2,5.2c0,2.9,2.3,5.2,5.2,5.2h11c2.9,0,5.2-2.3,5.2-5.2
								C65.5,72.2,63.2,69.9,60.3,69.9L60.3,69.9z"/>
						</g>
					</g>
				</g>
			</g>
		</g>
		<linearGradient id="SVGID_1_" gradientUnits="userSpaceOnUse" x1="104.0874" y1="105.3324" x2="104.0874" y2="43.8017">
			<stop  offset="0" style="stop-color:#FFFFFF"/>
			<stop  offset="1" style="stop-color:#12C0F1"/>
		</linearGradient>
		<path class="st6" d="M139.1,66c-1.9-4.5-4.7-8.6-8.3-12.1c-7.2-6.9-16.7-10.5-26.8-10.2c-19.3,0.8-35,17.1-35,36.3
			c0,8.5,3,16.9,8.5,23.4c0.5,0.6,0.9,1.2,1.3,1.7C101.7,96.6,122.2,83.1,139.1,66z"/>
	</g>
</g>
</svg>
