<?xml version="1.0" encoding="utf-8"?>
<!-- Generator: Adobe Illustrator 22.0.1, SVG Export Plug-In . SVG Version: 6.00 Build 0)  -->
<svg version="1.1" id="Layer_1" xmlns="http://www.w3.org/2000/svg" xmlns:xlink="http://www.w3.org/1999/xlink" x="0px" y="0px"
	 viewBox="0 0 200 200" style="enable-background:new 0 0 200 200;" xml:space="preserve">
<style type="text/css">
	.st0{opacity:0.75;}
	.st1{fill:#010101;}
	.st2{fill:#F3C2DA;}
	.st3{fill:#FFFFFF;}
	.st4{fill:#E797B1;}
	.st5{fill:#B44383;}
	.st6{fill:#E99795;}
	.st7{fill:#EABCC6;}
	.st8{fill:#E9C0D3;}
	.st9{fill:#962588;}
</style>
<g>
	<g>
		<g class="st0">
			<path class="st1" d="M21.2,172.5c-4.8,0-8.2-1.3-10.3-3.9c-6.5-8.1,3.1-28,25.8-53.3c-4-13.5-3.5-28.1,1.2-41.3
				C44.1,57.2,57,43.3,73.5,35.9c8.5-3.8,17.6-5.7,26.8-5.7c11.1,0,22.1,2.8,31.9,8.2c20.2-11.5,37.2-17.9,47.7-17.9
				c4.8,0,8.3,1.3,10.3,3.9c6.6,8.2-3.2,28.3-26.2,53.7c3.2,11,3.6,22.7,1,33.7c-0.6,2.5-1.3,5-2.2,7.4c-1.4,3.8-3.1,7.6-5.2,11.1
				c-2.7,4.7-6,9-9.8,12.8c-3.9,4-8.3,7.5-13.1,10.4c-10.4,6.3-22.2,9.6-34.3,9.6c0,0,0,0,0,0c-11.2,0-22.2-2.8-32-8.2
				C48.4,166.3,31.6,172.5,21.2,172.5z M39.5,123.1c-12.4,13.8-15.2,20.8-13.6,22.7c0.4,0.5,1.2,0.8,2.4,0.8c2.8,0,8.6-1.4,20.6-8
				c-1.9-2.4-3.7-4.9-5.2-7.5C42,128.5,40.7,125.9,39.5,123.1z M139.2,42.8c5,3.6,9.4,7.8,13.2,12.6c11.3-12.9,13.9-19.5,12.4-21.3
				c-0.4-0.5-1.2-0.8-2.4-0.8C158.1,33.3,149.9,36.7,139.2,42.8z"/>
			<path class="st1" d="M180,21.5c4.4,0,7.6,1.1,9.5,3.5c6.5,8.1-4.6,28.6-26.6,52.8c3.3,10.9,3.7,22.6,1.1,33.8
				c-0.6,2.5-1.3,4.9-2.2,7.3c-1.4,3.8-3.1,7.5-5.1,10.9c-2.7,4.6-5.9,8.8-9.6,12.6c-3.8,3.9-8.2,7.4-12.9,10.2
				c-10.6,6.4-22.3,9.5-33.8,9.5c-11.2,0-22.2-2.9-32-8.3c-19.9,11.3-36.8,17.8-47.3,17.8c-4.4,0-7.6-1.1-9.5-3.5
				c-6.4-8,4.4-28.4,26.2-52.4c-4.1-13.4-3.8-27.8,1-41.2c6.1-16.8,18.8-30.4,35.1-37.6c8.6-3.8,17.6-5.6,26.4-5.6
				c11.2,0,22.2,2.9,31.9,8.3C152.3,28.1,169.4,21.5,180,21.5 M170.1,27L170.1,27C170,27,170,27,170.1,27c-0.2,0-0.4,0-0.6,0
				c0,0,0,0-0.1,0c0,0,0,0,0.1,0C169.6,27.1,169.8,27,170.1,27C170,27,170,27,170.1,27c0,0,0.1,0,0.1,0c0.8,0,1.5,0.1,2.2,0.2
				c0.8,0.1,1.6,0.3,2.2,0.6c-0.7-0.3-1.4-0.5-2.2-0.6c-0.7-0.1-1.4-0.2-2.2-0.2C170.2,27,170.1,27,170.1,27L170.1,27 M169.2,27.1
				c-0.4,0-0.8,0.1-1.2,0.1C168.5,27.1,168.9,27.1,169.2,27.1 M166.1,27.4c0.3,0,0.6-0.1,0.9-0.1C166.7,27.3,166.4,27.4,166.1,27.4
				 M162.7,28.1c0.6-0.1,1.2-0.3,1.8-0.4C163.9,27.8,163.3,27.9,162.7,28.1 M161.8,28.3c-0.3,0.1-0.7,0.2-1,0.3
				C161.1,28.5,161.5,28.4,161.8,28.3C161.8,28.3,161.8,28.3,161.8,28.3C161.8,28.3,161.8,28.3,161.8,28.3 M171.5,29.3
				c-0.6-0.2-1.3-0.3-2-0.3C170.2,29.1,170.9,29.2,171.5,29.3 M151,32.1c1.7-0.7,3.3-1.4,4.9-1.9C154.3,30.8,152.7,31.4,151,32.1
				 M152.3,56.9c10.4-11.7,15.6-20.4,13.2-23.5c-0.6-0.8-1.7-1.1-3.2-1.1c-4.7,0-13.6,3.8-25.1,10.4C143,46.6,148,51.3,152.3,56.9
				 M142.7,35.9c1.6-0.8,3.1-1.5,4.6-2.2C145.8,34.4,144.3,35.2,142.7,35.9 M144.4,37.1c2.5-1.2,4.8-2.3,7-3.3
				C149.2,34.7,146.8,35.8,144.4,37.1 M135.4,39.7c2.2-1.2,4.3-2.3,6.4-3.4C139.8,37.4,137.6,38.5,135.4,39.7 M135.7,41.6
				c1.8-1,3.6-2,5.3-2.9C139.3,39.7,137.5,40.6,135.7,41.6 M134.1,40.6C134.1,40.6,134.1,40.6,134.1,40.6
				C134.1,40.6,134.1,40.6,134.1,40.6c0,0-0.1-0.1-0.1-0.1c0,0,0,0,0,0C134,40.6,134,40.6,134.1,40.6 M35.5,120.9
				c0.5-0.6,1.1-1.3,1.6-1.9C36.5,119.6,36,120.3,35.5,120.9 M28.2,147.5c4.3,0,12.1-3.2,22.2-8.7c-2.2-2.6-4.1-5.3-5.9-8.3
				c-1.8-3-3.4-6.1-4.6-9.3c-11.4,12.6-17.3,22-14.7,25.2C25.6,147.2,26.7,147.5,28.2,147.5 M32.7,124.2c0.6-0.7,1.2-1.4,1.8-2.2
				C33.9,122.8,33.3,123.5,32.7,124.2 M27.8,130.6c0.1-0.1,0.2-0.2,0.2-0.3C28,130.4,27.9,130.5,27.8,130.6 M23.8,136.5
				c0.2-0.3,0.5-0.7,0.7-1.1C24.3,135.8,24,136.1,23.8,136.5 M22.2,139.2c0.4-0.6,0.8-1.3,1.2-1.9C22.9,138,22.5,138.6,22.2,139.2
				 M21.3,140.9c-0.2,0.3-0.4,0.7-0.5,1C20.9,141.5,21.1,141.2,21.3,140.9 M19.6,144.3c0.1-0.1,0.1-0.3,0.2-0.4
				C19.7,144,19.6,144.2,19.6,144.3 M19.1,145.4c-0.5,1.2-0.9,2.3-1.2,3.4C18.3,147.7,18.7,146.6,19.1,145.4
				C19.1,145.4,19.1,145.4,19.1,145.4C19.1,145.4,19.1,145.4,19.1,145.4 M17.7,150.2c0,0.2-0.1,0.4-0.1,0.5
				C17.6,150.6,17.7,150.4,17.7,150.2 M17.5,152.5c0-0.2,0-0.4,0-0.6C17.5,152.1,17.5,152.3,17.5,152.5 M17.5,153.1
				c0,0.4,0.1,0.8,0.1,1.2C17.6,153.9,17.5,153.5,17.5,153.1C17.5,153.1,17.5,153.1,17.5,153.1C17.5,153.1,17.5,153.1,17.5,153.1
				 M180,19.5c-10.6,0-27.6,6.3-47.7,17.8c-9.8-5.3-20.8-8-31.9-8c-9.4,0-18.5,1.9-27.2,5.8C56.4,42.5,43.2,56.6,37,73.8
				c-4.8,13.2-5.3,27.8-1.4,41.4C24,128,0.3,157.2,10.1,169.3c2.3,2.8,6,4.2,11.1,4.2c10.5,0,27.3-6.2,47.3-17.5
				c9.8,5.3,20.9,8,32,8c12.2,0,24.3-3.4,34.8-9.7c4.9-2.9,9.3-6.5,13.3-10.5c3.8-3.9,7.2-8.2,9.9-13c2.1-3.6,3.9-7.4,5.3-11.3
				c0.9-2.4,1.6-5,2.3-7.5c2.6-11.1,2.3-22.7-0.8-33.7c11.7-13,35.7-42.4,25.9-54.6C188.8,21,185.1,19.5,180,19.5L180,19.5z
				 M141,42.9c13.3-7.4,19.1-8.6,21.4-8.6c0.9,0,1.4,0.2,1.6,0.4c0.7,0.9-0.2,5.9-11.6,19.1C149,49.7,145.2,46.1,141,42.9L141,42.9z
				 M28.2,145.5c-0.9,0-1.4-0.2-1.6-0.4c-0.7-0.9,0.3-6.3,12.6-20.3c1.1,2.3,2.2,4.6,3.5,6.7c1.4,2.3,2.9,4.5,4.6,6.6
				C35.5,144.6,30.3,145.5,28.2,145.5L28.2,145.5z"/>
		</g>
		<g>
			<path class="st2" d="M19.2,170.5c-4.8,0-8.2-1.3-10.3-3.9c-6.5-8.1,3.1-28,25.8-53.3c-4-13.5-3.5-28.1,1.2-41.3
				C42.1,55.2,55,41.3,71.5,33.9c8.5-3.8,17.6-5.7,26.8-5.7c11.1,0,22.1,2.8,31.9,8.2c20.2-11.5,37.2-17.9,47.7-17.9
				c4.8,0,8.3,1.3,10.3,3.9c6.6,8.2-3.2,28.3-26.2,53.7c3.2,11,3.6,22.7,1,33.7c-0.6,2.5-1.3,5-2.2,7.4c-1.4,3.8-3.1,7.6-5.2,11.1
				c-2.7,4.7-6,9-9.8,12.8c-3.9,4-8.3,7.5-13.1,10.4c-10.4,6.3-22.2,9.6-34.3,9.6c0,0,0,0,0,0c-11.2,0-22.2-2.8-32-8.2
				C46.4,164.3,29.6,170.5,19.2,170.5z M37.5,121.1c-12.4,13.8-15.2,20.8-13.6,22.7c0.4,0.5,1.2,0.8,2.4,0.8c2.8,0,8.6-1.4,20.6-8
				c-1.9-2.4-3.7-4.9-5.2-7.5C40,126.5,38.7,123.9,37.5,121.1z M137.2,40.8c5,3.6,9.4,7.8,13.2,12.6c11.3-12.9,13.9-19.5,12.4-21.3
				c-0.4-0.5-1.2-0.8-2.4-0.8C156.1,31.3,147.9,34.7,137.2,40.8z"/>
			<path class="st3" d="M178,19.5c4.4,0,7.6,1.1,9.5,3.5c6.5,8.1-4.6,28.6-26.6,52.8c3.3,10.9,3.7,22.6,1.1,33.8
				c-0.6,2.5-1.3,4.9-2.2,7.3c-1.4,3.8-3.1,7.5-5.1,10.9c-2.7,4.6-5.9,8.8-9.6,12.6c-3.8,3.9-8.2,7.4-12.9,10.2
				c-10.6,6.4-22.3,9.5-33.8,9.5c-11.2,0-22.2-2.9-32-8.3c-19.9,11.3-36.8,17.8-47.3,17.8c-4.4,0-7.6-1.1-9.5-3.5
				c-6.4-8,4.4-28.4,26.2-52.4c-4.1-13.4-3.8-27.8,1-41.2c6.1-16.8,18.8-30.4,35.1-37.6c8.6-3.8,17.6-5.6,26.4-5.6
				c11.2,0,22.2,2.9,31.9,8.3C150.3,26.1,167.4,19.5,178,19.5 M168.1,25L168.1,25C168,25,168,25,168.1,25c-0.2,0-0.4,0-0.6,0
				c0,0,0,0-0.1,0c0,0,0,0,0.1,0C167.6,25.1,167.8,25,168.1,25C168,25,168,25,168.1,25c0,0,0.1,0,0.1,0c0.8,0,1.5,0.1,2.2,0.2
				c0.8,0.1,1.6,0.3,2.2,0.6c-0.7-0.3-1.4-0.5-2.2-0.6c-0.7-0.1-1.4-0.2-2.2-0.2C168.2,25,168.1,25,168.1,25L168.1,25 M167.2,25.1
				c-0.4,0-0.8,0.1-1.2,0.1C166.5,25.1,166.9,25.1,167.2,25.1 M164.1,25.4c0.3,0,0.6-0.1,0.9-0.1C164.7,25.3,164.4,25.4,164.1,25.4
				 M160.7,26.1c0.6-0.1,1.2-0.3,1.8-0.4C161.9,25.8,161.3,25.9,160.7,26.1 M159.8,26.3c-0.3,0.1-0.7,0.2-1,0.3
				C159.1,26.5,159.5,26.4,159.8,26.3C159.8,26.3,159.8,26.3,159.8,26.3C159.8,26.3,159.8,26.3,159.8,26.3 M169.5,27.3
				c-0.6-0.2-1.3-0.3-2-0.3C168.2,27.1,168.9,27.2,169.5,27.3 M149,30.1c1.7-0.7,3.3-1.4,4.9-1.9C152.3,28.8,150.7,29.4,149,30.1
				 M150.3,54.9c10.4-11.7,15.6-20.4,13.2-23.5c-0.6-0.8-1.7-1.1-3.2-1.1c-4.7,0-13.6,3.8-25.1,10.4C141,44.6,146,49.3,150.3,54.9
				 M140.7,33.9c1.6-0.8,3.1-1.5,4.6-2.2C143.8,32.4,142.3,33.2,140.7,33.9 M142.4,35.1c2.5-1.2,4.8-2.3,7-3.3
				C147.2,32.7,144.8,33.8,142.4,35.1 M133.4,37.7c2.2-1.2,4.3-2.3,6.4-3.4C137.8,35.4,135.6,36.5,133.4,37.7 M133.7,39.6
				c1.8-1,3.6-2,5.3-2.9C137.3,37.7,135.5,38.6,133.7,39.6 M132.1,38.6C132.1,38.6,132.1,38.6,132.1,38.6
				C132.1,38.6,132.1,38.6,132.1,38.6c0,0-0.1-0.1-0.1-0.1c0,0,0,0,0,0C132,38.6,132,38.6,132.1,38.6 M33.5,118.9
				c0.5-0.6,1.1-1.3,1.6-1.9C34.5,117.6,34,118.3,33.5,118.9 M26.2,145.5c4.3,0,12.1-3.2,22.2-8.7c-2.2-2.6-4.1-5.3-5.9-8.3
				c-1.8-3-3.4-6.1-4.6-9.3c-11.4,12.6-17.3,22-14.7,25.2C23.6,145.2,24.7,145.5,26.2,145.5 M30.7,122.2c0.6-0.7,1.2-1.4,1.8-2.2
				C31.9,120.8,31.3,121.5,30.7,122.2 M25.8,128.6c0.1-0.1,0.2-0.2,0.2-0.3C26,128.4,25.9,128.5,25.8,128.6 M21.8,134.5
				c0.2-0.3,0.5-0.7,0.7-1.1C22.3,133.8,22,134.1,21.8,134.5 M20.2,137.2c0.4-0.6,0.8-1.3,1.2-1.9C20.9,136,20.5,136.6,20.2,137.2
				 M19.3,138.9c-0.2,0.3-0.4,0.7-0.5,1C18.9,139.5,19.1,139.2,19.3,138.9 M17.6,142.3c0.1-0.1,0.1-0.3,0.2-0.4
				C17.7,142,17.6,142.2,17.6,142.3 M17.1,143.4c-0.5,1.2-0.9,2.3-1.2,3.4C16.3,145.7,16.7,144.6,17.1,143.4
				C17.1,143.4,17.1,143.4,17.1,143.4C17.1,143.4,17.1,143.4,17.1,143.4 M15.7,148.2c0,0.2-0.1,0.4-0.1,0.5
				C15.6,148.6,15.7,148.4,15.7,148.2 M15.5,150.5c0-0.2,0-0.4,0-0.6C15.5,150.1,15.5,150.3,15.5,150.5 M15.5,151.1
				c0,0.4,0.1,0.8,0.1,1.2C15.6,151.9,15.5,151.5,15.5,151.1C15.5,151.1,15.5,151.1,15.5,151.1C15.5,151.1,15.5,151.1,15.5,151.1
				 M178,17.5c-10.6,0-27.6,6.3-47.7,17.8c-9.8-5.3-20.8-8-31.9-8c-9.4,0-18.5,1.9-27.2,5.8C54.4,40.5,41.2,54.6,35,71.8
				c-4.8,13.2-5.3,27.8-1.4,41.4C22,126-1.7,155.2,8.1,167.3c2.3,2.8,6,4.2,11.1,4.2c10.5,0,27.3-6.2,47.3-17.5c9.8,5.3,20.9,8,32,8
				c12.2,0,24.3-3.4,34.8-9.7c4.9-2.9,9.3-6.5,13.3-10.5c3.8-3.9,7.2-8.2,9.9-13c2.1-3.6,3.9-7.4,5.3-11.3c0.9-2.4,1.6-5,2.3-7.5
				c2.6-11.1,2.3-22.7-0.8-33.7c11.7-13,35.7-42.4,25.9-54.6C186.8,19,183.1,17.5,178,17.5L178,17.5z M139,40.9
				c13.3-7.4,19.1-8.6,21.4-8.6c0.9,0,1.4,0.2,1.6,0.4c0.7,0.9-0.2,5.9-11.6,19.1C147,47.7,143.2,44.1,139,40.9L139,40.9z
				 M26.2,143.5c-0.9,0-1.4-0.2-1.6-0.4c-0.7-0.9,0.3-6.3,12.6-20.3c1.1,2.3,2.2,4.6,3.5,6.7c1.4,2.3,2.9,4.5,4.6,6.6
				C33.5,142.6,28.3,143.5,26.2,143.5L26.2,143.5z"/>
		</g>
	</g>
	<path class="st4" d="M162.1,109.6c-0.6,2.5-1.3,4.9-2.2,7.3c-1.4,3.8-3.1,7.5-5.1,10.9c-2.7,4.6-5.9,8.8-9.6,12.6
		c-3.8,3.9-8.2,7.4-12.9,10.2c-30.9,18.7-71.1,8.8-89.8-22.1C32.2,111.6,30.1,91,36.9,72.5c6.1-16.8,18.8-30.4,35.1-37.6
		c33-14.6,71.7,0.3,86.3,33.4C164,81.2,165.3,95.8,162.1,109.6L162.1,109.6z"/>
	<g>
		<path class="st2" d="M149.2,60.7c1-1.1,2-2.2,2.9-3.3c-2.9-4.2-6.3-8-10-11.3c-3.2,1.9-6.6,3.9-10.3,6.6
			c-4.2,3.1-7.5,6.3-11.8,10.7C107,77,106,81.7,94.9,91.5c-1.7,1.5-4.2,3.7-7.9,6.3c-10.2,7.3-20.4,11.5-26.8,14
			c-4.4,1.8-8.5,3.2-14.4,6.5c-2.6,1.5-4.8,2.9-6.7,4.2c1,2.1,2,4.1,3.2,6.1c2.4,3.9,5.1,7.5,8.1,10.7c16.7-8.6,28.1-11,51.1-27.5
			C133.6,88.7,134.2,77.8,149.2,60.7z"/>
	</g>
	<path class="st5" d="M117.1,86.7c-12.2,10.4-18.4,15.6-23.7,19c-13.1,8.6-23.7,12.5-44.4,26.6c-1.2,0.8-2.1,1.4-2.7,1.9
		c6.6,8.8,15.2,15.5,24.7,19.9c1.6-1.7,4.1-4.1,7.4-6.8c14.6-11.6,21.9-8.5,34.1-17.9c8.8-6.8,7.8-10.6,19.2-18.4
		c1.7-1.1,6.1-4.1,12.4-7c7.7-3.6,14.6-5.5,19.7-6.6c0.4-10-1.4-20-5.5-29.2c-2-4.5-4.4-8.6-7.2-12.3
		C143,63.7,131.5,74.4,117.1,86.7z"/>
	<path class="st5" d="M47.9,74c-5.3,4.4-10.1,8.5-14.4,12.3c-1.4,10.7-0.1,21.7,3.9,31.8c5.7-8.1,15.1-19.4,29.1-29.8
		c9.5-7,16.2-9.9,27.6-16.3c11-6.1,26.5-15.5,44.6-29c-9.3-7.3-20.5-11.9-32.3-13.4C91.3,40,75.6,50.9,47.9,74z"/>
	<path class="st6" d="M71.9,34.9c-16.3,7.2-29,20.8-35.1,37.6c-3,8.3-4.2,17-3.8,25.6c2.6-0.8,6.7-2.2,11.3-4.8
		c17.8-10.1,21.3-25.8,33.1-39.6c6.1-7.1,16.6-16.3,35.2-22.7C99.4,27.9,85.2,29,71.9,34.9z"/>
	<g>
		<path class="st5" d="M71.9,34.8c-16.3,7.2-29,20.8-35.1,37.6c-1.3,3.7-2.3,7.5-2.9,11.3c5.4-7.3,12.3-15.8,26.8-29.1
			C73.4,43,84.6,35.4,94.5,29.4c8.2-0.5,16.4,0.6,24.1,3.1c0,0,0,0,0,0C103.8,27.7,87.3,28.1,71.9,34.8z"/>
		<path class="st7" d="M33.3,101.1c0-0.1,0-0.1,0-0.2C33.3,101,33.3,101.1,33.3,101.1C33.3,101.1,33.3,101.1,33.3,101.1z"/>
	</g>
	<path class="st6" d="M160.2,73.2c-6.2,2-14.9,5.6-23.5,12.4c-11.5,9.1-9.7,13.4-19.9,22.5c-14.4,12.9-24.1,9.8-42.8,24
		c-7.3,5.5-12.3,11-15.3,14.5c8.9,6.8,19.4,11.1,30.3,12.7c5.2-4.6,9.8-8.7,13.9-12.5c15-13.7,22.8-21.8,37.3-33
		c8.2-6.3,16.1-11.8,23.5-16.5C164.1,89.2,162.9,81,160.2,73.2z"/>
	<path class="st6" d="M161.6,77.9c-3.6,2.1-8.8,5.5-14.2,10.6c-12.9,12.2-10.3,18.5-19.2,28.2c-15.9,17.5-36.2,10.4-55.6,33.4
		c-1.2,1.4-2.2,2.7-2.7,3.5c8.9,4.3,18.6,6.5,28.5,6.6c4.1-5.4,9.2-11.2,19.1-19.4c20.4-16.7,27.1-15.2,43.2-26.1
		c0.5-1.7,1-3.3,1.4-5C164.5,99.1,164.3,88.2,161.6,77.9z"/>
	<path class="st5" d="M127.4,133.3c-20.9,14.9-28.9,16.1-44.2,25c16.1,3.8,33.7,1.6,49-7.7c4.7-2.8,9-6.3,12.9-10.2
		c3.7-3.8,7-8,9.6-12.6c2-3.5,3.8-7.1,5.1-10.9c0.9-2.4,1.6-4.8,2.2-7.3c0.6-2.8,1.1-5.6,1.4-8.4
		C150.6,112.3,148.3,118.4,127.4,133.3z"/>
	<path class="st8" d="M106.1,121.5"/>
	<g>
		<path class="st9" d="M133.7,39.6c0.5,0.3,1.1,0.7,1.6,1.1c15-8.7,25.6-12.5,28.2-9.3c5,6.2-22.4,36.6-61.2,67.8
			c-38.8,31.2-74.3,51.4-79.3,45.2c-2.6-3.2,3.3-12.6,14.8-25.2c-0.2-0.6-0.5-1.2-0.7-1.8c-14.9,16.8-22.3,30.2-18.3,35.2
			c7.1,8.9,47.3-11.6,89.7-45.7s71-69,63.9-77.8C168.4,24,153.6,28.5,133.7,39.6z"/>
		<path class="st9" d="M130.2,37.6c0.6,0.3,1.1,0.6,1.7,1c21.8-12.1,38.3-16.9,43-11c8,9.9-21,46.4-64.7,81.5
			c-43.7,35.1-85.5,55.6-93.5,45.7c-4.7-5.8,3.4-20.8,19.6-39.3c-0.2-0.6-0.4-1.2-0.6-1.8C14.1,137.7,3.2,158,9.6,166
			c10,12.4,57.9-9.5,107-49c49.1-39.5,80.8-81.6,70.8-94C181,14.9,158.6,21.3,130.2,37.6z"/>
		<g>
			<g>
				<path class="st2" d="M131.9,38.5c0.6,0.4,1.2,0.7,1.8,1.1c19.9-11.1,34.7-15.6,38.8-10.6c7.1,8.9-21.5,43.7-63.9,77.8
					s-82.6,54.6-89.7,45.7c-4-5,3.4-18.4,18.3-35.2c0,0,0,0.1,0.1,0.1c-0.3-0.7-0.5-1.4-0.7-2.1c-16.3,18.5-24.3,33.4-19.6,39.3
					c8,9.9,49.8-10.5,93.5-45.7c43.7-35.1,72.6-71.6,64.7-81.5C170.2,21.7,153.7,26.4,131.9,38.5z"/>
			</g>
		</g>
	</g>
</g>
</svg>
