<?xml version="1.0" encoding="utf-8"?>
<!-- Generator: Adobe Illustrator 22.0.1, SVG Export Plug-In . SVG Version: 6.00 Build 0)  -->
<svg version="1.1" id="Layer_1" xmlns="http://www.w3.org/2000/svg" xmlns:xlink="http://www.w3.org/1999/xlink" x="0px" y="0px"
	 viewBox="0 0 200 200" style="enable-background:new 0 0 200 200;" xml:space="preserve">
<style type="text/css">
	.st0{opacity:0.75;}
	.st1{fill:#010101;}
	.st2{fill:#FFFFFF;}
	.st3{fill:#F7AA1B;}
	.st4{opacity:0.2;fill:url(#SVGID_1_);}
</style>
<g>
	<g>
		<g>
			<g class="st0">
				<path class="st1" d="M184,86.8c3.1-3,4.2-7.4,2.8-11.5c-1.3-4.1-4.8-7-9.1-7.6l-37.9-5.5c-1.6-0.2-3-1.2-3.7-2.7l-16.9-34.4
					c-1.9-3.9-5.8-6.3-10.1-6.3c-4.3,0-8.2,2.4-10.1,6.3l-17,34.4c-0.7,1.5-2.1,2.5-3.7,2.7l-37.9,5.5c-4.3,0.6-7.7,3.5-9.1,7.6
					c-1.3,4.1-0.2,8.5,2.8,11.5l27.4,26.7c1.2,1.1,1.7,2.8,1.4,4.4l-6.5,37.8c-0.7,4.2,1,8.4,4.5,11c3.5,2.5,8,2.9,11.8,0.9
					l33.9-17.8c1.4-0.8,3.2-0.8,4.6,0l33.9,17.8c1.7,0.9,3.4,1.3,5.2,1.3c2.3,0,4.6-0.7,6.6-2.2c3.5-2.5,5.2-6.7,4.5-11l-6.5-37.8
					c-0.3-1.6,0.3-3.2,1.4-4.4L184,86.8z M148.9,119l6.5,37.8c0.3,1.9-0.4,3.7-2,4.9c-1.6,1.1-3.5,1.3-5.2,0.4l-33.9-17.8
					c-1.6-0.9-3.4-1.3-5.2-1.3c-1.8,0-3.6,0.4-5.2,1.3L70,162c-1.7,0.9-3.7,0.8-5.2-0.4c-1.6-1.1-2.3-2.9-2-4.9l6.5-37.8
					c0.6-3.6-0.6-7.4-3.2-9.9L38.6,82.4c-1.4-1.3-1.9-3.2-1.3-5.1c0.6-1.8,2.1-3.1,4-3.4l37.9-5.5c3.7-0.5,6.8-2.8,8.5-6.1l17-34.4
					c0.9-1.7,2.5-2.8,4.4-2.8c1.9,0,3.6,1,4.4,2.8l17,34.4c1.6,3.3,4.8,5.6,8.5,6.1l37.9,5.5c1.9,0.3,3.4,1.5,4,3.4
					c0.6,1.8,0.1,3.7-1.3,5.1l-27.4,26.7C149.5,111.7,148.3,115.4,148.9,119z"/>
			</g>
			<g>
				<path class="st2" d="M182,84.8c3.1-3,4.2-7.4,2.8-11.5c-1.3-4.1-4.8-7-9.1-7.6l-37.9-5.5c-1.6-0.2-3-1.2-3.7-2.7l-16.9-34.4
					c-1.9-3.9-5.8-6.3-10.1-6.3c-4.3,0-8.2,2.4-10.1,6.3l-17,34.4c-0.7,1.5-2.1,2.5-3.7,2.7l-37.9,5.5c-4.3,0.6-7.7,3.5-9.1,7.6
					c-1.3,4.1-0.2,8.5,2.8,11.5l27.4,26.7c1.2,1.1,1.7,2.8,1.4,4.4l-6.5,37.8c-0.7,4.2,1,8.4,4.5,11c3.5,2.5,8,2.9,11.8,0.9
					l33.9-17.8c1.4-0.8,3.2-0.8,4.6,0l33.9,17.8c1.7,0.9,3.4,1.3,5.2,1.3c2.3,0,4.6-0.7,6.6-2.2c3.5-2.5,5.2-6.7,4.5-11l-6.5-37.8
					c-0.3-1.6,0.3-3.2,1.4-4.4L182,84.8z M146.9,117l6.5,37.8c0.3,1.9-0.4,3.7-2,4.9c-1.6,1.1-3.5,1.3-5.2,0.4l-33.9-17.8
					c-1.6-0.9-3.4-1.3-5.2-1.3c-1.8,0-3.6,0.4-5.2,1.3L68,160c-1.7,0.9-3.7,0.8-5.2-0.4c-1.6-1.1-2.3-2.9-2-4.9l6.5-37.8
					c0.6-3.6-0.6-7.4-3.2-9.9L36.6,80.4c-1.4-1.3-1.9-3.2-1.3-5.1c0.6-1.8,2.1-3.1,4-3.4l37.9-5.5c3.7-0.5,6.8-2.8,8.5-6.1l17-34.4
					c0.9-1.7,2.5-2.8,4.4-2.8c1.9,0,3.6,1,4.4,2.8l17,34.4c1.6,3.3,4.8,5.6,8.5,6.1l37.9,5.5c1.9,0.3,3.4,1.5,4,3.4
					c0.6,1.8,0.1,3.7-1.3,5.1l-27.4,26.7C147.5,109.7,146.3,113.4,146.9,117z"/>
			</g>
		</g>
		<path class="st3" d="M146.9,117l6.5,37.8c0.3,1.9-0.4,3.7-2,4.9c-1.6,1.1-3.5,1.3-5.2,0.4l-33.9-17.8c-1.6-0.9-3.4-1.3-5.2-1.3
			c-1.8,0-3.6,0.4-5.2,1.3L68,160c-1.7,0.9-3.7,0.8-5.2-0.4c-1.6-1.1-2.3-2.9-2-4.9l6.5-37.8c0.6-3.6-0.6-7.4-3.2-9.9L36.6,80.4
			c-1.4-1.3-1.9-3.2-1.3-5.1c0.6-1.8,2.1-3.1,4-3.4l37.9-5.5c3.7-0.5,6.8-2.8,8.5-6.1l17-34.4c0.9-1.7,2.5-2.8,4.4-2.8
			c1.9,0,3.6,1,4.4,2.8l17,34.4c1.6,3.3,4.8,5.6,8.5,6.1l37.9,5.5c1.9,0.3,3.4,1.5,4,3.4c0.6,1.8,0.1,3.7-1.3,5.1l-27.4,26.7
			C147.5,109.7,146.3,113.4,146.9,117z"/>
		<linearGradient id="SVGID_1_" gradientUnits="userSpaceOnUse" x1="91.0238" y1="114.9776" x2="91.0238" y2="23.1306">
			<stop  offset="0" style="stop-color:#FFFFFF"/>
			<stop  offset="1" style="stop-color:#F6ED5C"/>
		</linearGradient>
		<path class="st4" d="M147,67.8l-10-1.5c-3.7-0.5-6.8-2.8-8.5-6.1l-17-34.4c-0.9-1.7-2.5-2.8-4.4-2.8c-1.9,0-3.6,1-4.4,2.8
			l-17,34.4c-1.6,3.3-4.8,5.6-8.5,6.1l-37.9,5.5c-1.9,0.3-3.4,1.5-4,3.4c-0.6,1.8-0.1,3.7,1.3,5.1L64,107.1c2.1,2.1,3.3,4.9,3.4,7.9
			C99.7,109.9,127.8,92.6,147,67.8z"/>
	</g>
</g>
</svg>
