<?xml version="1.0" encoding="utf-8"?>
<!-- Generator: Adobe Illustrator 22.0.1, SVG Export Plug-In . SVG Version: 6.00 Build 0)  -->
<svg version="1.1" id="Layer_1" xmlns="http://www.w3.org/2000/svg" xmlns:xlink="http://www.w3.org/1999/xlink" x="0px" y="0px"
	 viewBox="0 0 200 200" style="enable-background:new 0 0 200 200;" xml:space="preserve">
<style type="text/css">
	.st0{opacity:0.75;}
	.st1{fill:#010101;}
	.st2{fill:#7CC244;}
	.st3{fill:#FFFFFF;}
	.st4{fill:#00B690;}
</style>
<g>
	<g class="st0">
		<path class="st1" d="M63.2,105.9c-13.5,0-24.4-11-24.4-24.4c0-9.6,5.6-18.3,14.4-22.3c0-4.6-1.2-8.9-3.5-12.8
			c-1.8-2.9-4.1-5.6-7-7.8l-0.8-0.6l6.2-8l0.8,0.6c3.9,3,7.1,6.6,9.5,10.6c2.9,4.9,4.6,10.2,4.9,15.8c0,0,0,0,0,0
			c1,0,2.1,0.1,3.2,0.2c1.1-5.5,3.5-10.4,7-14.8c3-3.6,6.6-6.7,10.9-9.2l0.9-0.5l5,8.8L89.3,42c-3.2,1.8-5.9,4.1-8.1,6.8
			c-2.8,3.5-4.6,7.4-5.2,11.8c7.2,4.4,11.7,12.3,11.7,20.8C87.6,94.9,76.6,105.9,63.2,105.9z"/>
		<path class="st1" d="M48.2,31.3c3.8,3,6.9,6.4,9.2,10.3c3.5,5.8,4.6,11.6,4.8,16.4c0.3,0,0.7-0.1,1-0.1c1.4,0,2.7,0.1,4,0.4
			c0.8-4.7,2.8-10.1,7-15.3c2.9-3.5,6.4-6.5,10.6-8.9l4,7c-3.3,1.9-6.1,4.2-8.4,7c-3.6,4.5-5,9.1-5.5,13c7,4.1,11.7,11.6,11.7,20.3
			c0,12.9-10.5,23.4-23.4,23.4c-12.9,0-23.4-10.5-23.4-23.4c0-9.7,5.9-18.1,14.4-21.6c0.1-3.9-0.6-8.9-3.6-14
			c-1.8-3-4.3-5.8-7.3-8.1L48.2,31.3 M47.8,28.5l-1.2,1.6l-5,6.4l-1.2,1.6l1.6,1.2c2.8,2.2,5.1,4.7,6.8,7.6
			c2.2,3.6,3.3,7.5,3.4,11.7c-8.8,4.2-14.4,13.1-14.4,22.9c0,14,11.4,25.4,25.4,25.4c14,0,25.4-11.4,25.4-25.4
			c0-8.6-4.4-16.6-11.6-21.3c0.7-4,2.4-7.6,4.9-10.7c2.1-2.6,4.7-4.8,7.8-6.5l1.7-1l-1-1.7l-4-7l-1-1.7l-1.7,1
			c-4.4,2.5-8.1,5.7-11.2,9.4c-3.4,4.2-5.8,9-7,14.3c-0.5-0.1-1-0.1-1.5-0.1c-0.4-5.5-2.1-10.6-5-15.4c-2.5-4.1-5.7-7.8-9.7-10.9
			L47.8,28.5L47.8,28.5z"/>
		<path class="st1" d="M27.3,159.4l0-1c0.3-26,16.4-47.2,35.8-47.2c19.5,0,35.5,21.2,35.8,47.2l0,1H27.3z"/>
		<path class="st1" d="M63.2,112.2c19.1,0,34.6,20.6,34.8,46.2H28.3C28.6,132.9,44.1,112.2,63.2,112.2 M63.2,110.2
			c-9.9,0-19.1,5.1-26.1,14.3c-6.8,9-10.6,21.1-10.8,33.9l0,2h2H98h2l0-2c-0.1-12.8-4-24.8-10.8-33.9
			C82.3,115.3,73,110.2,63.2,110.2L63.2,110.2z"/>
		<path class="st1" d="M140.6,82.9c-13.5,0-24.4-11-24.4-24.4c0-9.5,5.5-18.1,14.1-22.1L125,20.5c-1.5-1.8-3.2-3.5-5-5l-0.8-0.6
			l6.2-8l0.8,0.6c3.9,3,7.1,6.6,9.5,10.6c2.9,4.9,4.6,10.2,4.9,15.8c0,0,0,0,0,0c1,0,2.1,0.1,3.2,0.2c1.1-5.5,3.5-10.4,7-14.8
			c3-3.6,6.6-6.7,10.9-9.2l0.9-0.5l5,8.8l-0.9,0.5c-2,1.2-3.9,2.6-5.6,4.2L153.8,38c7,4.5,11.3,12.3,11.3,20.6
			C165.1,72,154.1,82.9,140.6,82.9z"/>
		<path class="st1" d="M125.6,8.4c3.8,3,6.9,6.4,9.2,10.3c3.5,5.8,4.6,11.6,4.8,16.4c0.3,0,0.7-0.1,1-0.1c1.4,0,2.7,0.1,4,0.4
			c0.8-4.7,2.8-10.1,7-15.3c2.9-3.5,6.4-6.5,10.6-8.9l4,7c-2.2,1.3-4.2,2.8-6,4.5l-7.7,15.6c6.9,4.1,11.6,11.6,11.6,20.2
			c0,12.9-10.5,23.4-23.4,23.4s-23.4-10.5-23.4-23.4c0-9.7,5.9-18,14.3-21.6l-5.6-16.9c-1.5-1.9-3.3-3.7-5.3-5.3l2.5-3.2v0
			c0,0,0,0,0,0L125.6,8.4 M125.3,5.6L124,7.2l-2.5,3.2l-2.5,3.2l-1.2,1.6l1.6,1.2c1.7,1.4,3.3,2.9,4.7,4.6l4.9,14.8
			c-8.5,4.3-13.8,13-13.8,22.6c0,14,11.4,25.4,25.4,25.4c14,0,25.4-11.4,25.4-25.4c0-8.3-4.2-16.2-11-20.9l6.8-13.7
			c1.6-1.5,3.4-2.8,5.3-3.9l1.7-1l-1-1.7l-4-7l-1-1.7l-1.7,1c-4.4,2.5-8.1,5.7-11.2,9.4c-3.4,4.2-5.8,9-7,14.3
			c-0.5-0.1-1-0.1-1.5-0.1c-0.4-5.5-2.1-10.6-5-15.4c-2.5-4.1-5.7-7.8-9.7-10.9L125.3,5.6L125.3,5.6z"/>
		<path class="st1" d="M104.8,136.5l0-1c0.3-26,16.4-47.2,35.8-47.2c19.5,0,35.5,21.2,35.8,47.2l0,1H104.8z"/>
		<path class="st1" d="M140.6,89.3c19.1,0,34.6,20.6,34.8,46.2h-69.7C106.1,109.9,121.6,89.3,140.6,89.3 M140.6,87.3
			c-9.9,0-19.1,5.1-26.1,14.3c-6.8,9-10.6,21.1-10.8,33.9l0,2h2h69.7h2l0-2c-0.1-12.8-4-24.8-10.8-33.9
			C159.7,92.4,150.5,87.3,140.6,87.3L140.6,87.3z"/>
	</g>
	<g>
		<g>
			<g>
				<g>
					<path class="st2" d="M61.2,103.9c-13.5,0-24.4-11-24.4-24.4c0-9.6,5.6-18.3,14.4-22.3c0-4.6-1.2-8.9-3.5-12.8
						c-1.8-2.9-4.1-5.6-7-7.8l-0.8-0.6l6.2-8l0.8,0.6c3.9,3,7.1,6.6,9.5,10.6c2.9,4.9,4.6,10.2,4.9,15.8c0,0,0,0,0,0
						c1,0,2.1,0.1,3.2,0.2c1.1-5.5,3.5-10.4,7-14.8c3-3.6,6.6-6.7,10.9-9.2l0.9-0.5l5,8.8L87.3,40c-3.2,1.8-5.9,4.1-8.1,6.8
						c-2.8,3.5-4.6,7.4-5.2,11.8c7.2,4.4,11.7,12.3,11.7,20.8C85.6,92.9,74.6,103.9,61.2,103.9z"/>
					<path class="st3" d="M46.2,29.3c3.8,3,6.9,6.4,9.2,10.3c3.5,5.8,4.6,11.6,4.8,16.4c0.3,0,0.7-0.1,1-0.1c1.4,0,2.7,0.1,4,0.4
						c0.8-4.7,2.8-10.1,7-15.3c2.9-3.5,6.4-6.5,10.6-8.9l4,7c-3.3,1.9-6.1,4.2-8.4,7c-3.6,4.5-5,9.1-5.5,13
						c7,4.1,11.7,11.6,11.7,20.3c0,12.9-10.5,23.4-23.4,23.4c-12.9,0-23.4-10.5-23.4-23.4c0-9.7,5.9-18.1,14.4-21.6
						c0.1-3.9-0.6-8.9-3.6-14c-1.8-3-4.3-5.8-7.3-8.1L46.2,29.3 M45.8,26.5l-1.2,1.6l-5,6.4l-1.2,1.6l1.6,1.2
						c2.8,2.2,5.1,4.7,6.8,7.6c2.2,3.6,3.3,7.5,3.4,11.7c-8.8,4.2-14.4,13.1-14.4,22.9c0,14,11.4,25.4,25.4,25.4
						c14,0,25.4-11.4,25.4-25.4c0-8.6-4.4-16.6-11.6-21.3c0.7-4,2.4-7.6,4.9-10.7c2.1-2.6,4.7-4.8,7.8-6.5l1.7-1l-1-1.7l-4-7l-1-1.7
						l-1.7,1c-4.4,2.5-8.1,5.7-11.2,9.4c-3.4,4.2-5.8,9-7,14.3c-0.5-0.1-1-0.1-1.5-0.1c-0.4-5.5-2.1-10.6-5-15.4
						c-2.5-4.1-5.7-7.8-9.7-10.9L45.8,26.5L45.8,26.5z"/>
				</g>
				<g>
					<path class="st2" d="M25.3,157.4l0-1c0.3-26,16.4-47.2,35.8-47.2c19.5,0,35.5,21.2,35.8,47.2l0,1H25.3z"/>
					<path class="st3" d="M61.2,110.2c19.1,0,34.6,20.6,34.8,46.2H26.3C26.6,130.9,42.1,110.2,61.2,110.2 M61.2,108.2
						c-9.9,0-19.1,5.1-26.1,14.3c-6.8,9-10.6,21.1-10.8,33.9l0,2h2H96h2l0-2c-0.1-12.8-4-24.8-10.8-33.9
						C80.3,113.3,71,108.2,61.2,108.2L61.2,108.2z"/>
				</g>
			</g>
			<g>
				<g>
					<path class="st4" d="M138.6,80.9c-13.5,0-24.4-11-24.4-24.4c0-9.5,5.5-18.1,14.1-22.1L123,18.5c-1.5-1.8-3.2-3.5-5-5l-0.8-0.6
						l6.2-8l0.8,0.6c3.9,3,7.1,6.6,9.5,10.6c2.9,4.9,4.6,10.2,4.9,15.8c0,0,0,0,0,0c1,0,2.1,0.1,3.2,0.2c1.1-5.5,3.5-10.4,7-14.8
						c3-3.6,6.6-6.7,10.9-9.2l0.9-0.5l5,8.8l-0.9,0.5c-2,1.2-3.9,2.6-5.6,4.2L151.8,36c7,4.5,11.3,12.3,11.3,20.6
						C163.1,70,152.1,80.9,138.6,80.9z"/>
					<path class="st3" d="M123.6,6.4c3.8,3,6.9,6.4,9.2,10.3c3.5,5.8,4.6,11.6,4.8,16.4c0.3,0,0.7-0.1,1-0.1c1.4,0,2.7,0.1,4,0.4
						c0.8-4.7,2.8-10.1,7-15.3c2.9-3.5,6.4-6.5,10.6-8.9l4,7c-2.2,1.3-4.2,2.8-6,4.5l-7.7,15.6c6.9,4.1,11.6,11.6,11.6,20.2
						c0,12.9-10.5,23.4-23.4,23.4s-23.4-10.5-23.4-23.4c0-9.7,5.9-18,14.3-21.6l-5.6-16.9c-1.5-1.9-3.3-3.7-5.3-5.3l2.5-3.2v0
						c0,0,0,0,0,0L123.6,6.4 M123.3,3.6L122,5.2l-2.5,3.2l-2.5,3.2l-1.2,1.6l1.6,1.2c1.7,1.4,3.3,2.9,4.7,4.6l4.9,14.8
						c-8.5,4.3-13.8,13-13.8,22.6c0,14,11.4,25.4,25.4,25.4c14,0,25.4-11.4,25.4-25.4c0-8.3-4.2-16.2-11-20.9l6.8-13.7
						c1.6-1.5,3.4-2.8,5.3-3.9l1.7-1l-1-1.7l-4-7l-1-1.7l-1.7,1c-4.4,2.5-8.1,5.7-11.2,9.4c-3.4,4.2-5.8,9-7,14.3
						c-0.5-0.1-1-0.1-1.5-0.1c-0.4-5.5-2.1-10.6-5-15.4c-2.5-4.1-5.7-7.8-9.7-10.9L123.3,3.6L123.3,3.6z"/>
				</g>
				<g>
					<path class="st4" d="M102.8,134.5l0-1c0.3-26,16.4-47.2,35.8-47.2c19.5,0,35.5,21.2,35.8,47.2l0,1H102.8z"/>
					<path class="st3" d="M138.6,87.3c19.1,0,34.6,20.6,34.8,46.2h-69.7C104.1,107.9,119.6,87.3,138.6,87.3 M138.6,85.3
						c-9.9,0-19.1,5.1-26.1,14.3c-6.8,9-10.6,21.1-10.8,33.9l0,2h2h69.7h2l0-2c-0.1-12.8-4-24.8-10.8-33.9
						C157.7,90.4,148.5,85.3,138.6,85.3L138.6,85.3z"/>
				</g>
			</g>
		</g>
	</g>
</g>
</svg>
