<?xml version="1.0" encoding="utf-8"?>
<!-- Generator: Adobe Illustrator 22.0.1, SVG Export Plug-In . SVG Version: 6.00 Build 0)  -->
<svg version="1.1" id="Layer_1" xmlns="http://www.w3.org/2000/svg" xmlns:xlink="http://www.w3.org/1999/xlink" x="0px" y="0px"
	 viewBox="0 0 200 200" style="enable-background:new 0 0 200 200;" xml:space="preserve">
<style type="text/css">
	.st0{fill:#FFFFFF;}
	.st1{fill:#F7903A;}
	.st2{fill:#33BDB1;}
</style>
<g>
	<g>
		<g>
			<g>
				<path class="st0" d="M187,98.4c-0.1-4.6-2.2-8.7-5.6-11.4c4.2-3.5,6-8.8,5.1-13.9c-1.2-7-7.8-12.2-15.2-12.1
					c-3.6,0-27.3,0.3-31.1,0.4l0.9-2.9c5.3-16.7,0-34.3-12.3-44.5c-6.9-5.8-18.5-3.7-21.9,6.1c-0.2,0.7-0.2,1.4,0,2.1
					c2.8,8.6,2.9,14.4,0.4,20c-2.6,5.8-8.4,12-19.3,20.6c-2.6,2.1-4.9,3.3-7.1,4.6c-3.5,1.9-6.8,3.8-10.2,8l-11.9,0.1l0-3.3
					c0-1.8-1.5-3.2-3.3-3.2l-32.6,0.4c-1.8,0-3.2,1.5-3.2,3.3l1,84.9c0,1.8,1.5,3.2,3.3,3.2l32.6-0.4c1.8,0,3.3-1.5,3.2-3.3
					l-0.1-9.8L78,147c9.6,8.3,21.8,12.8,34.6,12.6c7.5-0.1,32.6-0.4,40.9-0.5c8.1-0.1,14.6-6.7,14.5-14.9c0-3-1-5.8-2.6-8.1l0.8,0
					c8.1-0.1,14.6-6.7,14.5-14.9c0-3.4-1.3-6.5-3.2-9C183.1,110.2,187.1,104.8,187,98.4z M53.2,153.9l-26.1,0.3l-1-78.3l26.1-0.3
					L53.2,153.9z M172.4,106.7c-3.2,0-28,0.3-31.3,0.4c-1.8,0-3.2,1.5-3.2,3.3c0,1.8,1.5,3.2,3.3,3.2l24.8-0.3
					c4.5-0.1,8.2,3.6,8.3,8.1c0.1,4.5-3.5,8.2-8.1,8.3c-9.2,0.1-17.3,0.2-24.8,0.3c-1.8,0-3.2,1.5-3.2,3.3c0,1.8,1.5,3.2,3.3,3.2
					l11.8-0.1c4.5-0.1,8.2,3.6,8.3,8.1c0.1,4.5-3.5,8.2-8.1,8.3c-8.5,0.1-33.9,0.4-40.9,0.5c-11.5,0.1-22.6-4-31.1-11.8
					c-0.6-0.6-1.4-0.9-2.2-0.9l-19.6,0.2L58.9,82l13.5-0.2c1,0,2-0.5,2.6-1.4c2.9-4,5.5-5.5,9.1-7.5c2.3-1.3,5-2.8,8-5.2
					c22.1-17.5,27.1-28.2,21.4-46.6c2.1-4.2,7.5-5.4,11.4-2.1c10.5,9,14.5,23.6,10.1,37.4l-1.6,5l-4.2,0.1c-1.8,0-3.2,1.5-3.2,3.3
					c0,1.8,1.5,3.2,3.3,3.2c5-0.1,37-0.5,42.1-0.5c4.3-0.1,8.1,2.8,8.7,6.7c0.9,5.2-3,9.6-7.9,9.6c-3.3,0-28.1,0.3-31.3,0.4
					c-1.8,0-3.3,1.5-3.2,3.3c0,1.8,1.5,3.2,3.3,3.2c3.2,0,28-0.3,31.3-0.4c4.5-0.1,8.2,3.6,8.3,8.1C180.6,103,177,106.7,172.4,106.7
					z"/>
			</g>
		</g>
		
			<rect x="26.6" y="75.7" transform="matrix(0.9999 -1.225546e-02 1.225546e-02 0.9999 -1.4047 0.4951)" class="st1" width="26.1" height="78.3"/>
		<path class="st2" d="M172.4,106.7c-3.2,0-28,0.3-31.3,0.4c-1.8,0-3.2,1.5-3.2,3.3c0,1.8,1.5,3.2,3.3,3.2l24.8-0.3
			c4.5-0.1,8.2,3.6,8.3,8.1c0.1,4.5-3.5,8.2-8.1,8.3c-9.2,0.1-17.3,0.2-24.8,0.3c-1.8,0-3.2,1.5-3.2,3.3c0,1.8,1.5,3.2,3.3,3.2
			l11.8-0.1c4.5-0.1,8.2,3.6,8.3,8.1c0.1,4.5-3.5,8.2-8.1,8.3c-8.5,0.1-33.9,0.4-40.9,0.5c-11.5,0.1-22.6-4-31.1-11.8
			c-0.6-0.6-1.4-0.9-2.2-0.9l-19.6,0.2L58.9,82l13.5-0.2c1,0,2-0.5,2.6-1.4c2.9-4,5.5-5.5,9.1-7.5c2.3-1.3,5-2.8,8-5.2
			c22.1-17.5,27.1-28.2,21.4-46.6c2.1-4.2,7.5-5.4,11.4-2.1c10.5,9,14.5,23.6,10.1,37.4l-1.6,5l-4.2,0.1c-1.8,0-3.2,1.5-3.2,3.3
			c0,1.8,1.5,3.2,3.3,3.2c5-0.1,37-0.5,42.1-0.5c4.3-0.1,8.1,2.8,8.7,6.7c0.9,5.2-3,9.6-7.9,9.6c-3.3,0-28.1,0.3-31.3,0.4
			c-1.8,0-3.3,1.5-3.2,3.3c0,1.8,1.5,3.2,3.3,3.2c3.2,0,28-0.3,31.3-0.4c4.5-0.1,8.2,3.6,8.3,8.1C180.6,103,177,106.7,172.4,106.7z"
			/>
	</g>
</g>
</svg>
